<svg xmlns="http://www.w3.org/2000/svg" xmlns:xlink="http://www.w3.org/1999/xlink" width="500" zoomAndPan="magnify" viewBox="0 0 375 374.999991" height="500" preserveAspectRatio="xMidYMid meet" version="1.0"><defs><g/><clipPath id="f7266141cf"><path d="M 62 13.191406 L 313 13.191406 L 313 322.191406 L 62 322.191406 Z M 62 13.191406 " clip-rule="nonzero"/></clipPath><clipPath id="9d5c165e6a"><path d="M 186 95.296875 L 269 95.296875 L 269 242.296875 L 186 242.296875 Z M 186 95.296875 " clip-rule="nonzero"/></clipPath><clipPath id="f70faa6744"><path d="M 119.289062 104 L 182 104 L 182 216 L 119.289062 216 Z M 119.289062 104 " clip-rule="nonzero"/></clipPath><clipPath id="06eec3d07b"><path d="M 134.5 104.242188 C 133.09375 111.3125 136.625 118.601562 141.710938 123.6875 C 146.796875 128.777344 153.304688 132.164062 159.519531 135.800781 C 165.734375 139.4375 171.933594 143.574219 175.847656 149.632812 C 179.25 154.894531 180.625 161.203125 181.34375 167.433594 C 182.210938 174.972656 182.09375 182.90625 179.6875 190.019531 C 177.945312 185.734375 175.671875 181.628906 173.078125 177.800781 C 167.992188 170.265625 161.734375 163.605469 155.503906 156.992188 C 148.21875 149.265625 140.949219 141.535156 133.664062 133.808594 C 141.199219 147.945312 152.882812 159.324219 162.761719 171.953125 C 172.640625 184.5625 181.050781 199.625 180.128906 215.621094 C 179.394531 207.441406 172.757812 200.945312 165.558594 196.984375 C 158.363281 193.023438 150.285156 190.824219 143.179688 186.6875 C 129.753906 178.828125 120.722656 163.929688 120.019531 148.398438 C 119.316406 132.695312 126.484375 117.765625 134.5 104.242188 Z M 134.5 104.242188 " clip-rule="nonzero"/></clipPath><linearGradient x1="-1204.20996" gradientTransform="matrix(-0.14657, 0, 0, 0.146648, -25.597232, 95.298248)" y1="60.999987" x2="-1204.20996" gradientUnits="userSpaceOnUse" y2="820.500046" id="b13c75cca4"><stop stop-opacity="1" stop-color="rgb(53.503418%, 74.87793%, 25.770569%)" offset="0"/><stop stop-opacity="1" stop-color="rgb(53.413391%, 74.772644%, 25.761414%)" offset="0.125"/><stop stop-opacity="1" stop-color="rgb(53.234863%, 74.565125%, 25.744629%)" offset="0.25"/><stop stop-opacity="1" stop-color="rgb(53.05481%, 74.356079%, 25.727844%)" offset="0.375"/><stop stop-opacity="1" stop-color="rgb(52.876282%, 74.147034%, 25.71106%)" offset="0.5"/><stop stop-opacity="1" stop-color="rgb(52.696228%, 73.939514%, 25.694275%)" offset="0.625"/><stop stop-opacity="1" stop-color="rgb(52.5177%, 73.730469%, 25.67749%)" offset="0.75"/><stop stop-opacity="1" stop-color="rgb(52.337646%, 73.522949%, 25.660706%)" offset="0.875"/><stop stop-opacity="1" stop-color="rgb(52.157593%, 73.313904%, 25.645447%)" offset="1"/></linearGradient></defs><path fill="#27963c" d="M 240.597656 77.71875 C 212.984375 66.226562 196.035156 48.300781 188.027344 38.550781 C 187.863281 38.785156 187.691406 39.03125 187.511719 39.285156 L 187.511719 296.179688 C 187.6875 296.203125 187.863281 296.222656 188.027344 296.242188 C 198.425781 294.589844 222.625 289.277344 244.71875 269.441406 C 274.851562 242.390625 279.789062 207.429688 280.796875 198.320312 C 284.574219 161.554688 288.355469 124.789062 292.132812 88.027344 C 280.433594 88 261.605469 86.460938 240.597656 77.71875 " fill-opacity="1" fill-rule="nonzero"/><path fill="#40b93c" d="M 138.550781 78.75 C 114.609375 88.804688 93.277344 88.054688 82.886719 86.996094 C 85.292969 119.980469 87.699219 152.964844 90.101562 185.949219 C 90.09375 193.984375 90.910156 232.042969 121.027344 263.257812 C 146.683594 289.851562 177.699219 294.992188 187.511719 296.179688 L 187.511719 39.285156 C 181.207031 48.222656 165.816406 67.292969 138.550781 78.75 " fill-opacity="1" fill-rule="nonzero"/><g clip-path="url(#f7266141cf)"><path fill="#27963c" d="M 287.707031 200.945312 C 286.628906 210.730469 281.320312 248.285156 248.957031 277.339844 C 225.226562 298.644531 199.234375 304.351562 188.066406 306.125 C 178.1875 304.976562 144.160156 299.78125 116.101562 270.695312 C 83.753906 237.167969 82.878906 196.292969 82.886719 187.664062 C 80.304688 152.230469 77.71875 116.804688 75.136719 81.375 C 86.296875 82.515625 109.210938 83.324219 134.921875 72.519531 C 165.039062 59.863281 181.667969 38.558594 188.066406 29.339844 C 196.667969 39.820312 214.875 59.070312 244.527344 71.410156 C 267.09375 80.804688 287.316406 82.457031 299.886719 82.484375 C 295.824219 121.972656 291.765625 161.457031 287.707031 200.945312 Z M 251.183594 60.171875 C 218.066406 46.390625 197.734375 24.890625 188.128906 13.191406 C 180.988281 23.484375 162.417969 47.277344 128.785156 61.410156 C 100.074219 73.472656 74.484375 72.570312 62.023438 71.300781 C 64.910156 110.863281 67.792969 150.425781 70.679688 189.984375 C 70.667969 199.625 71.644531 245.269531 107.769531 282.710938 C 139.101562 315.1875 177.101562 320.988281 188.128906 322.273438 C 200.601562 320.292969 229.628906 313.917969 256.125 290.128906 C 292.265625 257.683594 298.191406 215.75 299.398438 204.824219 C 303.929688 160.726562 308.464844 116.632812 313 72.535156 C 298.960938 72.503906 276.382812 70.660156 251.183594 60.171875 " fill-opacity="1" fill-rule="nonzero"/></g><g clip-path="url(#9d5c165e6a)"><path fill="#006838" d="M 249.207031 95.296875 C 251.070312 104.625 246.40625 114.246094 239.695312 120.960938 C 232.980469 127.691406 224.394531 132.152344 216.199219 136.945312 C 207.992188 141.742188 199.796875 147.210938 194.652344 155.203125 C 190.167969 162.15625 188.335938 170.484375 187.398438 178.695312 C 186.226562 188.667969 186.386719 199.125 189.554688 208.511719 C 191.855469 202.851562 194.859375 197.4375 198.273438 192.378906 C 204.988281 182.421875 213.253906 173.636719 221.476562 164.898438 C 231.089844 154.691406 240.691406 144.5 250.304688 134.292969 C 240.355469 152.945312 224.933594 167.992188 211.90625 184.636719 C 198.875 201.296875 187.765625 221.179688 188.980469 242.296875 C 189.949219 231.492188 198.714844 222.910156 208.226562 217.691406 C 217.738281 212.46875 228.394531 209.550781 237.761719 204.097656 C 255.480469 193.773438 267.394531 174.09375 268.320312 153.589844 C 269.257812 132.855469 259.804688 113.128906 249.207031 95.296875 Z M 249.207031 95.296875 " fill-opacity="1" fill-rule="nonzero"/></g><g clip-path="url(#f70faa6744)"><g clip-path="url(#06eec3d07b)"><path fill="url(#b13c75cca4)" d="M 182.210938 104.242188 L 182.210938 215.621094 L 119.316406 215.621094 L 119.316406 104.242188 Z M 182.210938 104.242188 " fill-rule="nonzero"/></g></g><g fill="#27963c" fill-opacity="1"><g transform="translate(56.657281, 293.60865)"><g><path d="M 11.234375 -7.859375 C 13.285156 -9.585938 15.488281 -10.691406 17.84375 -11.171875 C 20.195312 -11.648438 22.492188 -11.476562 24.734375 -10.65625 C 26.984375 -9.832031 28.960938 -8.414062 30.671875 -6.40625 C 32.753906 -3.9375 33.894531 -1.273438 34.09375 1.578125 C 34.289062 4.429688 33.515625 7.113281 31.765625 9.625 L 27.046875 4.0625 C 27.554688 2.90625 27.71875 1.753906 27.53125 0.609375 C 27.34375 -0.523438 26.835938 -1.578125 26.015625 -2.546875 C 24.691406 -4.109375 23.078125 -4.910156 21.171875 -4.953125 C 19.273438 -4.992188 17.421875 -4.25 15.609375 -2.71875 C 13.796875 -1.164062 12.753906 0.546875 12.484375 2.421875 C 12.222656 4.304688 12.753906 6.03125 14.078125 7.59375 C 14.898438 8.5625 15.859375 9.234375 16.953125 9.609375 C 18.046875 9.984375 19.203125 10.003906 20.421875 9.671875 L 25.140625 15.234375 C 22.398438 16.546875 19.632812 16.875 16.84375 16.21875 C 14.0625 15.5625 11.628906 14 9.546875 11.53125 C 7.835938 9.519531 6.753906 7.34375 6.296875 5 C 5.835938 2.65625 6.035156 0.363281 6.890625 -1.875 C 7.742188 -4.125 9.191406 -6.117188 11.234375 -7.859375 Z M 11.234375 -7.859375 "/></g></g></g><g fill="#27963c" fill-opacity="1"><g transform="translate(77.477315, 317.527079)"><g><path d="M 12.640625 10.265625 L 14.734375 -1.28125 L 13.5 -2.296875 L 7.015625 5.6875 L 1.875 1.515625 L 19.03125 -19.609375 L 27.65625 -12.59375 C 29.320312 -11.238281 30.507812 -9.789062 31.21875 -8.25 C 31.925781 -6.71875 32.160156 -5.207031 31.921875 -3.71875 C 31.679688 -2.238281 31.054688 -0.878906 30.046875 0.359375 C 28.898438 1.765625 27.476562 2.695312 25.78125 3.15625 C 24.09375 3.613281 22.289062 3.445312 20.375 2.65625 L 18.453125 14.984375 Z M 16.453125 -5.9375 L 19.640625 -3.34375 C 20.585938 -2.570312 21.484375 -2.222656 22.328125 -2.296875 C 23.171875 -2.367188 23.929688 -2.828125 24.609375 -3.671875 C 25.273438 -4.472656 25.554688 -5.296875 25.453125 -6.140625 C 25.359375 -6.992188 24.835938 -7.804688 23.890625 -8.578125 L 20.703125 -11.171875 Z M 16.453125 -5.9375 "/></g></g></g><g fill="#27963c" fill-opacity="1"><g transform="translate(98.816908, 334.909104)"><g><path d="M 13.328125 7.484375 C 11.066406 6.265625 9.28125 4.625 7.96875 2.5625 C 6.65625 0.507812 5.953125 -1.75 5.859375 -4.21875 C 5.765625 -6.6875 6.351562 -9.09375 7.625 -11.4375 C 8.882812 -13.78125 10.566406 -15.585938 12.671875 -16.859375 C 14.785156 -18.140625 17.0625 -18.796875 19.5 -18.828125 C 21.9375 -18.859375 24.285156 -18.265625 26.546875 -17.046875 C 28.796875 -15.828125 30.578125 -14.191406 31.890625 -12.140625 C 33.210938 -10.085938 33.910156 -7.832031 33.984375 -5.375 C 34.054688 -2.925781 33.460938 -0.53125 32.203125 1.8125 C 30.929688 4.15625 29.242188 5.96875 27.140625 7.25 C 25.046875 8.539062 22.78125 9.207031 20.34375 9.25 C 17.914062 9.289062 15.578125 8.703125 13.328125 7.484375 Z M 16.203125 2.15625 C 18.109375 3.1875 19.976562 3.375 21.8125 2.71875 C 23.644531 2.070312 25.128906 0.703125 26.265625 -1.390625 C 27.398438 -3.503906 27.734375 -5.503906 27.265625 -7.390625 C 26.796875 -9.273438 25.609375 -10.734375 23.703125 -11.765625 C 21.765625 -12.804688 19.878906 -13.007812 18.046875 -12.375 C 16.222656 -11.738281 14.738281 -10.351562 13.59375 -8.21875 C 12.445312 -6.101562 12.109375 -4.101562 12.578125 -2.21875 C 13.054688 -0.34375 14.265625 1.113281 16.203125 2.15625 Z M 16.203125 2.15625 "/></g></g></g><g fill="#27963c" fill-opacity="1"><g transform="translate(127.767117, 349.956358)"><g><path d="M 27.671875 -10.515625 C 27.191406 -9.015625 26.410156 -7.75 25.328125 -6.71875 C 24.242188 -5.695312 22.863281 -5.03125 21.1875 -4.71875 C 19.519531 -4.414062 17.625 -4.601562 15.5 -5.28125 L 11.578125 -6.546875 L 8.59375 2.75 L 2.296875 0.734375 L 10.59375 -25.1875 L 20.8125 -21.90625 C 22.882812 -21.25 24.519531 -20.332031 25.71875 -19.15625 C 26.914062 -17.988281 27.671875 -16.660156 27.984375 -15.171875 C 28.296875 -13.691406 28.191406 -12.140625 27.671875 -10.515625 Z M 16.625 -10.46875 C 17.84375 -10.082031 18.835938 -10.078125 19.609375 -10.453125 C 20.378906 -10.835938 20.925781 -11.546875 21.25 -12.578125 C 21.582031 -13.617188 21.546875 -14.515625 21.140625 -15.265625 C 20.734375 -16.015625 19.921875 -16.582031 18.703125 -16.96875 L 15.265625 -18.078125 L 13.1875 -11.578125 Z M 16.625 -10.46875 "/></g></g></g><g fill="#27963c" fill-opacity="1"><g transform="translate(152.664991, 357.757529)"><g><path d="M 12.0625 2.078125 C 10.101562 1.773438 8.390625 1.1875 6.921875 0.3125 C 5.460938 -0.550781 4.359375 -1.675781 3.609375 -3.0625 C 2.867188 -4.457031 2.601562 -6.039062 2.8125 -7.8125 L 9.796875 -6.765625 C 9.753906 -5.742188 9.988281 -4.929688 10.5 -4.328125 C 11.007812 -3.722656 11.738281 -3.347656 12.6875 -3.203125 C 13.65625 -3.054688 14.445312 -3.164062 15.0625 -3.53125 C 15.6875 -3.90625 16.0625 -4.484375 16.1875 -5.265625 C 16.28125 -5.929688 16.140625 -6.515625 15.765625 -7.015625 C 15.390625 -7.515625 14.894531 -7.953125 14.28125 -8.328125 C 13.675781 -8.710938 12.796875 -9.175781 11.640625 -9.71875 C 9.992188 -10.507812 8.65625 -11.253906 7.625 -11.953125 C 6.601562 -12.648438 5.773438 -13.582031 5.140625 -14.75 C 4.503906 -15.925781 4.3125 -17.351562 4.5625 -19.03125 C 4.9375 -21.550781 6.140625 -23.382812 8.171875 -24.53125 C 10.203125 -25.675781 12.675781 -26.03125 15.59375 -25.59375 C 18.5625 -25.15625 20.84375 -24.09375 22.4375 -22.40625 C 24.039062 -20.71875 24.71875 -18.59375 24.46875 -16.03125 L 17.375 -17.09375 C 17.445312 -17.957031 17.226562 -18.679688 16.71875 -19.265625 C 16.207031 -19.859375 15.492188 -20.222656 14.578125 -20.359375 C 13.785156 -20.484375 13.109375 -20.367188 12.546875 -20.015625 C 11.992188 -19.671875 11.660156 -19.101562 11.546875 -18.3125 C 11.421875 -17.445312 11.726562 -16.707031 12.46875 -16.09375 C 13.21875 -15.488281 14.421875 -14.773438 16.078125 -13.953125 C 17.722656 -13.097656 19.050781 -12.320312 20.0625 -11.625 C 21.070312 -10.925781 21.894531 -10.003906 22.53125 -8.859375 C 23.175781 -7.722656 23.378906 -6.347656 23.140625 -4.734375 C 22.910156 -3.203125 22.3125 -1.867188 21.34375 -0.734375 C 20.375 0.390625 19.085938 1.210938 17.484375 1.734375 C 15.890625 2.265625 14.082031 2.378906 12.0625 2.078125 Z M 12.0625 2.078125 "/></g></g></g><g fill="#27963c" fill-opacity="1"><g transform="translate(177.536937, 360.974235)"><g/></g></g><g fill="#27963c" fill-opacity="1"><g transform="translate(187.204078, 361.902543)"><g><path d="M 18.890625 -6.421875 L 8.75 -5.5625 L 7.53125 -0.640625 L 0.625 -0.046875 L 8.15625 -28 L 15.8125 -28.65625 L 27.90625 -2.34375 L 20.90625 -1.765625 Z M 16.75 -11.375 L 12.546875 -21.015625 L 10.078125 -10.8125 Z M 16.75 -11.375 "/></g></g></g><g fill="#27963c" fill-opacity="1"><g transform="translate(217.769593, 358.985262)"><g><path d="M 15.703125 -4.265625 L 7.546875 -12.703125 L 6.015625 -12.296875 L 8.71875 -2.375 L 2.328125 -0.625 L -4.8125 -26.890625 L 5.921875 -29.8125 C 7.984375 -30.375 9.84375 -30.492188 11.5 -30.171875 C 13.164062 -29.847656 14.53125 -29.15625 15.59375 -28.09375 C 16.65625 -27.039062 17.398438 -25.738281 17.828125 -24.1875 C 18.296875 -22.4375 18.222656 -20.738281 17.609375 -19.09375 C 16.992188 -17.457031 15.804688 -16.09375 14.046875 -15 L 22.9375 -6.234375 Z M 4.796875 -16.8125 L 8.765625 -17.890625 C 9.929688 -18.203125 10.726562 -18.722656 11.15625 -19.453125 C 11.59375 -20.191406 11.664062 -21.085938 11.375 -22.140625 C 11.101562 -23.140625 10.59375 -23.84375 9.84375 -24.25 C 9.101562 -24.664062 8.148438 -24.71875 6.984375 -24.40625 L 3.015625 -23.328125 Z M 4.796875 -16.8125 "/></g></g></g><g fill="#27963c" fill-opacity="1"><g transform="translate(244.640022, 351.96322)"><g><path d="M 17.28125 -39.34375 L 29.625 -15.078125 L 23.71875 -12.0625 L 16.3125 -26.609375 L 18.28125 -9.3125 L 13.5 -6.875 L 0.625 -18.671875 L 8.046875 -4.09375 L 2.140625 -1.09375 L -10.203125 -25.359375 L -3.21875 -28.90625 L 12.140625 -15.578125 L 10.328125 -35.796875 Z M 17.28125 -39.34375 "/></g></g></g><g fill="#27963c" fill-opacity="1"><g transform="translate(278.445294, 334.108604)"><g><path d="M 11.921875 -9.5625 C 9.953125 -7.925781 7.765625 -6.878906 5.359375 -6.421875 C 2.960938 -5.972656 0.601562 -6.164062 -1.71875 -7 C -4.039062 -7.84375 -6.054688 -9.289062 -7.765625 -11.34375 C -9.472656 -13.394531 -10.519531 -15.632812 -10.90625 -18.0625 C -11.300781 -20.5 -11.054688 -22.851562 -10.171875 -25.125 C -9.285156 -27.40625 -7.859375 -29.363281 -5.890625 -31 C -3.921875 -32.632812 -1.738281 -33.675781 0.65625 -34.125 C 3.050781 -34.582031 5.394531 -34.390625 7.6875 -33.546875 C 9.988281 -32.703125 11.992188 -31.253906 13.703125 -29.203125 C 15.410156 -27.148438 16.46875 -24.90625 16.875 -22.46875 C 17.28125 -20.039062 17.046875 -17.691406 16.171875 -15.421875 C 15.304688 -13.148438 13.890625 -11.195312 11.921875 -9.5625 Z M 8.046875 -14.21875 C 9.710938 -15.601562 10.585938 -17.269531 10.671875 -19.21875 C 10.753906 -21.164062 10.035156 -23.054688 8.515625 -24.890625 C 6.972656 -26.734375 5.242188 -27.785156 3.328125 -28.046875 C 1.410156 -28.316406 -0.378906 -27.757812 -2.046875 -26.375 C -3.734375 -24.96875 -4.625 -23.300781 -4.71875 -21.375 C -4.820312 -19.445312 -4.097656 -17.550781 -2.546875 -15.6875 C -1.003906 -13.832031 0.722656 -12.769531 2.640625 -12.5 C 4.554688 -12.238281 6.359375 -12.8125 8.046875 -14.21875 Z M 8.046875 -14.21875 "/></g></g></g><g fill="#27963c" fill-opacity="1"><g transform="translate(303.284905, 312.878582)"><g><path d="M 10.359375 -12.5625 L -1.171875 -14.75 L -2.1875 -13.515625 L 5.75 -6.96875 L 1.53125 -1.859375 L -19.46875 -19.171875 L -12.390625 -27.75 C -11.023438 -29.40625 -9.570312 -30.578125 -8.03125 -31.265625 C -6.488281 -31.960938 -4.972656 -32.1875 -3.484375 -31.9375 C -2.003906 -31.6875 -0.644531 -31.050781 0.59375 -30.03125 C 1.988281 -28.882812 2.90625 -27.460938 3.34375 -25.765625 C 3.789062 -24.066406 3.613281 -22.257812 2.8125 -20.34375 L 15.109375 -18.34375 Z M -5.796875 -16.484375 L -3.1875 -19.65625 C -2.414062 -20.59375 -2.0625 -21.484375 -2.125 -22.328125 C -2.195312 -23.179688 -2.648438 -23.953125 -3.484375 -24.640625 C -4.296875 -25.304688 -5.125 -25.59375 -5.96875 -25.5 C -6.820312 -25.40625 -7.632812 -24.890625 -8.40625 -23.953125 L -11.015625 -20.78125 Z M -5.796875 -16.484375 "/></g></g></g></svg>